<svg width="296" height="80" viewBox="0 0 296 80" fill="none" xmlns="http://www.w3.org/2000/svg">
<path fill-rule="evenodd" clip-rule="evenodd" d="M237.8 0H183.13C182.867 0.002312 182.609 0.073825 182.382 0.207352C182.155 0.340878 181.968 0.531715 181.838 0.760715C181.708 0.989705 181.641 1.2488 181.643 1.51197C181.645 1.77513 181.717 2.0331 181.85 2.25999L185.54 8.51C189.797 15.7282 192.593 23.713 193.77 32.01C194.535 37.4014 196.876 53.1224 198.157 61.7197C198.634 64.9227 198.964 67.137 199.01 67.46V67.55C199.19 68.4 201.87 80 211.5 80C219.5 80 222.05 73.31 222.76 70.61C222.844 70.2903 223.033 70.0078 223.295 69.8068C223.558 69.6059 223.879 69.498 224.21 69.5H262.79C263.121 69.498 263.442 69.6059 263.705 69.8068C263.967 70.0078 264.156 70.2903 264.24 70.61C264.95 73.31 267.5 80 275.5 80C283.5 80 286.05 73.31 286.79 70.61C286.874 70.2903 287.063 70.0078 287.325 69.8068C287.588 69.6059 287.909 69.498 288.24 69.5H293.53C293.928 69.5 294.309 69.342 294.591 69.0607C294.872 68.7794 295.03 68.3978 295.03 68V63C295.03 62.6022 294.872 62.2207 294.591 61.9394C294.309 61.658 293.928 61.5 293.53 61.5C293.132 61.5 292.751 61.342 292.469 61.0607C292.188 60.7794 292.03 60.3978 292.03 60V49.94C292.031 49.6538 291.951 49.3732 291.8 49.13C290.048 46.4105 287.694 44.1309 284.919 42.4679C282.144 40.8049 279.024 39.803 275.8 39.54C275.552 39.5162 275.314 39.4281 275.111 39.2842C274.907 39.1404 274.745 38.9459 274.64 38.72L267.2 22.53C266.99 22.0747 266.655 21.6888 266.233 21.4177C265.812 21.1466 265.321 21.0017 264.82 21H242C241.602 21 241.221 20.842 240.939 20.5607C240.658 20.2794 240.5 19.8978 240.5 19.5V2.7C240.5 1.98392 240.216 1.29716 239.709 0.790815C239.203 0.284469 238.516 0 237.8 0ZM242 41V25.57C242 25.2862 242.113 25.0141 242.313 24.8134C242.514 24.6127 242.786 24.5 243.07 24.5H264.31C264.522 24.4969 264.731 24.557 264.909 24.6727C265.087 24.7885 265.227 24.9546 265.31 25.15C266.1 26.97 268.4 32.23 270.03 35.5C270.441 36.2757 270.674 37.1332 270.712 38.0102C270.75 38.8872 270.592 39.7616 270.25 40.57C269.998 41.1532 269.578 41.6481 269.044 41.9918C268.51 42.3355 267.885 42.5124 267.25 42.5H243.5C243.104 42.4948 242.725 42.3351 242.445 42.0549C242.165 41.7747 242.005 41.3962 242 41Z" fill="#D84602"/>
<path d="M193.31 67.89L190.5 51.35L188 34.5L186 24.5C185.025 19.2178 183.086 14.1602 180.28 9.58002C177.5 5.00002 174.13 2.22239e-05 172.5 2.22239e-05H83.87C83.8336 -0.000519776 83.7978 0.00886123 83.7664 0.0271522C83.735 0.0454432 83.7091 0.0719472 83.6916 0.103828C83.6742 0.135708 83.6657 0.171761 83.6672 0.208091C83.6686 0.244421 83.68 0.279656 83.7 0.31002C85.01 2.31002 92.61 13 103.5 13H147.06C147.707 13 148.328 13.2571 148.785 13.7147C149.243 14.1723 149.5 14.7929 149.5 15.44C149.5 16.119 149.23 16.7701 148.75 17.2502C148.27 17.7303 147.619 18 146.94 18H97.59V18.07C98.37 19.07 107.87 31 115.54 31H154.93C155.404 30.9987 155.874 31.0912 156.313 31.2721C156.752 31.4531 157.15 31.7189 157.486 32.0544C157.821 32.3899 158.087 32.7884 158.268 33.227C158.449 33.6656 158.541 34.1356 158.54 34.61C158.54 35.5091 158.183 36.3714 157.547 37.0071C156.911 37.6429 156.049 38 155.15 38H112.56C113.14 38.82 122.04 51 136.56 51H165.46C165.867 51 166.27 51.0802 166.646 51.236C167.022 51.3918 167.364 51.6201 167.652 51.908C167.94 52.1959 168.168 52.5376 168.324 52.9137C168.48 53.2898 168.56 53.6929 168.56 54.1C168.56 54.8692 168.254 55.6068 167.711 56.1506C167.167 56.6945 166.429 57 165.66 57H131.66V57.07C132.52 58.07 142.2 69 154.6 69H192.47C192.727 68.9604 192.958 68.8224 193.115 68.6152C193.272 68.408 193.342 68.1479 193.31 67.89Z" fill="#FD8300"/>
<path d="M97.5 44.5H32.5C31.1193 44.5 30 45.6193 30 47C30 48.3807 31.1193 49.5 32.5 49.5H97.5C98.8807 49.5 100 48.3807 100 47C100 45.6193 98.8807 44.5 97.5 44.5Z" fill="#FD8300"/>
<path d="M112.5 58.5H96.5C95.1193 58.5 94 59.6193 94 61C94 62.3807 95.1193 63.5 96.5 63.5H112.5C113.881 63.5 115 62.3807 115 61C115 59.6193 113.881 58.5 112.5 58.5Z" fill="#FD8300"/>
<path d="M83.5 58.5H47.5C46.1193 58.5 45 59.6193 45 61C45 62.3807 46.1193 63.5 47.5 63.5H83.5C84.8807 63.5 86 62.3807 86 61C86 59.6193 84.8807 58.5 83.5 58.5Z" fill="#FD8300"/>
<path d="M33.5 58.5H22.5C21.1193 58.5 20 59.6193 20 61C20 62.3807 21.1193 63.5 22.5 63.5H33.5C34.8807 63.5 36 62.3807 36 61C36 59.6193 34.8807 58.5 33.5 58.5Z" fill="#FD8300"/>
<path d="M70.5 29.5H20.5C19.1193 29.5 18 30.6193 18 32C18 33.3807 19.1193 34.5 20.5 34.5H70.5C71.8807 34.5 73 33.3807 73 32C73 30.6193 71.8807 29.5 70.5 29.5Z" fill="#FD8300"/>
<path d="M95.5 29.5H85.5C84.1193 29.5 83 30.6193 83 32C83 33.3807 84.1193 34.5 85.5 34.5H95.5C96.8807 34.5 98 33.3807 98 32C98 30.6193 96.8807 29.5 95.5 29.5Z" fill="#FD8300"/>
<path d="M6.5 29.5H2.5C1.11929 29.5 0 30.6193 0 32C0 33.3807 1.11929 34.5 2.5 34.5H6.5C7.88071 34.5 9 33.3807 9 32C9 30.6193 7.88071 29.5 6.5 29.5Z" fill="#FD8300"/>
</svg>
