<svg width="296" height="190" viewBox="0 0 296 190" fill="none" xmlns="http://www.w3.org/2000/svg">
<path d="M55.19 126.125C53.0973 126.125 51.2053 125.767 49.514 125.05C47.8513 124.333 46.5327 123.301 45.558 121.954C44.5833 120.607 44.0817 119.016 44.053 117.181H50.503C50.589 118.414 51.019 119.388 51.793 120.105C52.5957 120.822 53.685 121.18 55.061 121.18C56.4657 121.18 57.5693 120.85 58.372 120.191C59.1747 119.503 59.576 118.614 59.576 117.525C59.576 116.636 59.3037 115.905 58.759 115.332C58.2143 114.759 57.5263 114.314 56.695 113.999C55.8923 113.655 54.7743 113.282 53.341 112.881C51.3917 112.308 49.8007 111.749 48.568 111.204C47.364 110.631 46.3177 109.785 45.429 108.667C44.569 107.52 44.139 106.001 44.139 104.109C44.139 102.332 44.5833 100.784 45.472 99.4649C46.3607 98.1459 47.6077 97.1429 49.213 96.4549C50.8183 95.7379 52.653 95.3799 54.717 95.3799C57.813 95.3799 60.3213 96.1399 62.242 97.6589C64.1913 99.1499 65.2663 101.242 65.467 103.937H58.845C58.7877 102.905 58.3433 102.059 57.512 101.4C56.7093 100.712 55.6343 100.368 54.287 100.368C53.1117 100.368 52.1657 100.669 51.449 101.271C50.761 101.873 50.417 102.747 50.417 103.894C50.417 104.697 50.675 105.37 51.191 105.915C51.7357 106.431 52.395 106.861 53.169 107.205C53.9717 107.52 55.0897 107.893 56.523 108.323C58.4723 108.896 60.0633 109.47 61.296 110.043C62.5287 110.616 63.5893 111.476 64.478 112.623C65.3667 113.77 65.811 115.275 65.811 117.138C65.811 118.743 65.3953 120.234 64.564 121.61C63.7327 122.986 62.5143 124.09 60.909 124.921C59.3037 125.724 57.3973 126.125 55.19 126.125ZM76.9641 95.8099V114.386C76.9641 116.421 77.4945 117.984 78.5551 119.073C79.6158 120.134 81.1065 120.664 83.0271 120.664C84.9765 120.664 86.4815 120.134 87.5421 119.073C88.6028 117.984 89.1331 116.421 89.1331 114.386V95.8099H95.1961V114.343C95.1961 116.894 94.6371 119.059 93.5191 120.836C92.4298 122.585 90.9535 123.903 89.0901 124.792C87.2555 125.681 85.2058 126.125 82.9411 126.125C80.7051 126.125 78.6698 125.681 76.8351 124.792C75.0291 123.903 73.5958 122.585 72.5351 120.836C71.4745 119.059 70.9441 116.894 70.9441 114.343V95.8099H76.9641ZM122.9 105.098C122.9 106.703 122.513 108.208 121.739 109.613C120.993 111.018 119.804 112.15 118.17 113.01C116.564 113.87 114.529 114.3 112.064 114.3H107.033V125.824H101.013V95.8099H112.064C114.386 95.8099 116.364 96.2109 117.998 97.0139C119.632 97.8169 120.85 98.9199 121.653 100.325C122.484 101.73 122.9 103.321 122.9 105.098ZM111.806 109.441C113.468 109.441 114.701 109.068 115.504 108.323C116.306 107.549 116.708 106.474 116.708 105.098C116.708 102.174 115.074 100.712 111.806 100.712H107.033V109.441H111.806ZM133.194 100.669V108.194H143.299V112.967H133.194V120.922H144.589V125.824H127.174V95.7669H144.589V100.669H133.194ZM165.539 125.824L158.917 114.128H156.079V125.824H150.059V95.8099H161.325C163.647 95.8099 165.625 96.2259 167.259 97.0569C168.893 97.8599 170.112 98.9629 170.914 100.368C171.746 101.744 172.161 103.292 172.161 105.012C172.161 106.99 171.588 108.782 170.441 110.387C169.295 111.964 167.589 113.053 165.324 113.655L172.505 125.824H165.539ZM156.079 109.613H161.11C162.744 109.613 163.963 109.226 164.765 108.452C165.568 107.649 165.969 106.546 165.969 105.141C165.969 103.765 165.568 102.704 164.765 101.959C163.963 101.185 162.744 100.798 161.11 100.798H156.079V109.613ZM193.872 121.051H203.762V125.824H187.852V95.8099H193.872V121.051ZM221.521 126.125C218.711 126.125 216.131 125.466 213.781 124.147C211.43 122.828 209.567 121.008 208.191 118.686C206.815 116.335 206.127 113.684 206.127 110.731C206.127 107.807 206.815 105.184 208.191 102.862C209.567 100.511 211.43 98.6769 213.781 97.3579C216.131 96.0389 218.711 95.3799 221.521 95.3799C224.359 95.3799 226.939 96.0389 229.261 97.3579C231.611 98.6769 233.46 100.511 234.808 102.862C236.184 105.184 236.872 107.807 236.872 110.731C236.872 113.684 236.184 116.335 234.808 118.686C233.46 121.008 231.611 122.828 229.261 124.147C226.91 125.466 224.33 126.125 221.521 126.125ZM221.521 120.75C223.327 120.75 224.918 120.349 226.294 119.546C227.67 118.715 228.745 117.539 229.519 116.02C230.293 114.501 230.68 112.738 230.68 110.731C230.68 108.724 230.293 106.976 229.519 105.485C228.745 103.966 227.67 102.805 226.294 102.002C224.918 101.199 223.327 100.798 221.521 100.798C219.715 100.798 218.109 101.199 216.705 102.002C215.329 102.805 214.254 103.966 213.48 105.485C212.706 106.976 212.319 108.724 212.319 110.731C212.319 112.738 212.706 114.501 213.48 116.02C214.254 117.539 215.329 118.715 216.705 119.546C218.109 120.349 219.715 120.75 221.521 120.75ZM262.248 104.84C261.56 103.579 260.614 102.618 259.41 101.959C258.206 101.3 256.802 100.97 255.196 100.97C253.419 100.97 251.842 101.371 250.466 102.174C249.09 102.977 248.015 104.123 247.241 105.614C246.467 107.105 246.08 108.825 246.08 110.774C246.08 112.781 246.467 114.529 247.241 116.02C248.044 117.511 249.148 118.657 250.552 119.46C251.957 120.263 253.591 120.664 255.454 120.664C257.748 120.664 259.625 120.062 261.087 118.858C262.549 117.625 263.51 115.92 263.968 113.741H253.648V109.14H269.902V114.386C269.501 116.479 268.641 118.414 267.322 120.191C266.004 121.968 264.298 123.402 262.205 124.491C260.141 125.552 257.819 126.082 255.239 126.082C252.344 126.082 249.721 125.437 247.37 124.147C245.048 122.828 243.214 121.008 241.866 118.686C240.548 116.364 239.888 113.727 239.888 110.774C239.888 107.821 240.548 105.184 241.866 102.862C243.214 100.511 245.048 98.6909 247.37 97.4009C249.721 96.0819 252.33 95.4229 255.196 95.4229C258.579 95.4229 261.517 96.2539 264.011 97.9169C266.505 99.5509 268.225 101.859 269.171 104.84H262.248Z" fill="#D24B18"/>
<path d="M58.052 146.412V147.456H54.56V158.994H53.3V147.456H49.79V146.412H58.052ZM66.7376 158.994L63.6236 153.738H61.3016V158.994H60.0416V146.412H63.8216C65.2256 146.412 66.2876 146.748 67.0076 147.42C67.7396 148.092 68.1056 148.974 68.1056 150.066C68.1056 150.978 67.8416 151.758 67.3136 152.406C66.7976 153.042 66.0296 153.456 65.0096 153.648L68.2496 158.994H66.7376ZM61.3016 152.712H63.8396C64.8236 152.712 65.5616 152.472 66.0536 151.992C66.5576 151.512 66.8096 150.87 66.8096 150.066C66.8096 149.238 66.5696 148.602 66.0896 148.158C65.6096 147.702 64.8536 147.474 63.8216 147.474H61.3016V152.712ZM77.896 156.006H72.172L71.074 158.994H69.742L74.332 146.574H75.754L80.326 158.994H78.994L77.896 156.006ZM77.518 154.962L75.034 148.158L72.55 154.962H77.518ZM91.8342 158.994H90.5742L83.6082 148.41V158.994H82.3482V146.412H83.6082L90.5742 156.978V146.412H91.8342V158.994ZM98.504 159.12C97.676 159.12 96.944 158.976 96.308 158.688C95.684 158.4 95.192 157.998 94.832 157.482C94.472 156.966 94.28 156.39 94.256 155.754H95.588C95.648 156.366 95.918 156.906 96.398 157.374C96.878 157.83 97.58 158.058 98.504 158.058C99.356 158.058 100.028 157.842 100.52 157.41C101.024 156.966 101.276 156.408 101.276 155.736C101.276 155.196 101.138 154.764 100.862 154.44C100.586 154.104 100.244 153.858 99.836 153.702C99.428 153.534 98.864 153.354 98.144 153.162C97.304 152.934 96.638 152.712 96.146 152.496C95.654 152.28 95.234 151.944 94.886 151.488C94.538 151.032 94.364 150.414 94.364 149.634C94.364 148.986 94.532 148.41 94.868 147.906C95.204 147.39 95.678 146.988 96.29 146.7C96.902 146.412 97.604 146.268 98.396 146.268C99.56 146.268 100.496 146.556 101.204 147.132C101.924 147.696 102.338 148.428 102.446 149.328H101.078C100.994 148.812 100.712 148.356 100.232 147.96C99.752 147.552 99.104 147.348 98.288 147.348C97.532 147.348 96.902 147.552 96.398 147.96C95.894 148.356 95.642 148.902 95.642 149.598C95.642 150.126 95.78 150.552 96.056 150.876C96.332 151.2 96.674 151.446 97.082 151.614C97.502 151.782 98.066 151.962 98.774 152.154C99.59 152.382 100.25 152.61 100.754 152.838C101.258 153.054 101.684 153.39 102.032 153.846C102.38 154.302 102.554 154.914 102.554 155.682C102.554 156.27 102.398 156.828 102.086 157.356C101.774 157.884 101.312 158.31 100.7 158.634C100.088 158.958 99.356 159.12 98.504 159.12ZM113.035 150.03C113.035 151.11 112.681 151.98 111.973 152.64C111.265 153.3 110.203 153.63 108.787 153.63H106.249V158.994H104.989V146.412H108.787C110.191 146.412 111.247 146.742 111.955 147.402C112.675 148.062 113.035 148.938 113.035 150.03ZM108.787 152.55C110.755 152.55 111.739 151.71 111.739 150.03C111.739 149.19 111.505 148.554 111.037 148.122C110.569 147.69 109.819 147.474 108.787 147.474H106.249V152.55H108.787ZM120.801 159.12C119.637 159.12 118.581 158.85 117.633 158.31C116.685 157.758 115.935 156.996 115.383 156.024C114.843 155.04 114.573 153.93 114.573 152.694C114.573 151.458 114.843 150.354 115.383 149.382C115.935 148.398 116.685 147.636 117.633 147.096C118.581 146.544 119.637 146.268 120.801 146.268C121.977 146.268 123.039 146.544 123.987 147.096C124.935 147.636 125.679 148.398 126.219 149.382C126.759 150.354 127.029 151.458 127.029 152.694C127.029 153.93 126.759 155.04 126.219 156.024C125.679 156.996 124.935 157.758 123.987 158.31C123.039 158.85 121.977 159.12 120.801 159.12ZM120.801 158.022C121.737 158.022 122.577 157.806 123.321 157.374C124.065 156.942 124.653 156.324 125.085 155.52C125.517 154.704 125.733 153.762 125.733 152.694C125.733 151.626 125.517 150.69 125.085 149.886C124.653 149.082 124.065 148.464 123.321 148.032C122.577 147.6 121.737 147.384 120.801 147.384C119.865 147.384 119.025 147.6 118.281 148.032C117.537 148.464 116.949 149.082 116.517 149.886C116.085 150.69 115.869 151.626 115.869 152.694C115.869 153.762 116.085 154.704 116.517 155.52C116.949 156.324 117.537 156.942 118.281 157.374C119.025 157.806 119.865 158.022 120.801 158.022ZM136.031 158.994L132.917 153.738H130.595V158.994H129.335V146.412H133.115C134.519 146.412 135.581 146.748 136.301 147.42C137.033 148.092 137.399 148.974 137.399 150.066C137.399 150.978 137.135 151.758 136.607 152.406C136.091 153.042 135.323 153.456 134.303 153.648L137.543 158.994H136.031ZM130.595 152.712H133.133C134.117 152.712 134.855 152.472 135.347 151.992C135.851 151.512 136.103 150.87 136.103 150.066C136.103 149.238 135.863 148.602 135.383 148.158C134.903 147.702 134.147 147.474 133.115 147.474H130.595V152.712ZM147.261 146.412V147.456H143.769V158.994H142.509V147.456H138.999V146.412H147.261ZM150.511 147.438V152.136H155.281V153.18H150.511V157.95H155.821V158.994H149.251V146.394H155.821V147.438H150.511ZM164.503 147.438V152.136H169.273V153.18H164.503V157.95H169.813V158.994H163.243V146.394H169.813V147.438H164.503ZM178.495 157.968H183.013V158.994H177.235V146.412H178.495V157.968ZM190.463 159.12C189.299 159.12 188.243 158.85 187.295 158.31C186.347 157.758 185.597 156.996 185.045 156.024C184.505 155.04 184.235 153.93 184.235 152.694C184.235 151.458 184.505 150.354 185.045 149.382C185.597 148.398 186.347 147.636 187.295 147.096C188.243 146.544 189.299 146.268 190.463 146.268C191.639 146.268 192.701 146.544 193.649 147.096C194.597 147.636 195.341 148.398 195.881 149.382C196.421 150.354 196.691 151.458 196.691 152.694C196.691 153.93 196.421 155.04 195.881 156.024C195.341 156.996 194.597 157.758 193.649 158.31C192.701 158.85 191.639 159.12 190.463 159.12ZM190.463 158.022C191.399 158.022 192.239 157.806 192.983 157.374C193.727 156.942 194.315 156.324 194.747 155.52C195.179 154.704 195.395 153.762 195.395 152.694C195.395 151.626 195.179 150.69 194.747 149.886C194.315 149.082 193.727 148.464 192.983 148.032C192.239 147.6 191.399 147.384 190.463 147.384C189.527 147.384 188.687 147.6 187.943 148.032C187.199 148.464 186.611 149.082 186.179 149.886C185.747 150.69 185.531 151.626 185.531 152.694C185.531 153.762 185.747 154.704 186.179 155.52C186.611 156.324 187.199 156.942 187.943 157.374C188.687 157.806 189.527 158.022 190.463 158.022ZM208.897 150.084C208.537 149.256 207.985 148.608 207.241 148.14C206.509 147.66 205.645 147.42 204.649 147.42C203.713 147.42 202.873 147.636 202.129 148.068C201.385 148.5 200.797 149.118 200.365 149.922C199.933 150.714 199.717 151.638 199.717 152.694C199.717 153.75 199.933 154.68 200.365 155.484C200.797 156.288 201.385 156.906 202.129 157.338C202.873 157.77 203.713 157.986 204.649 157.986C205.525 157.986 206.311 157.8 207.007 157.428C207.715 157.044 208.279 156.504 208.699 155.808C209.131 155.1 209.377 154.278 209.437 153.342H204.145V152.316H210.769V153.234C210.709 154.338 210.409 155.34 209.869 156.24C209.329 157.128 208.603 157.83 207.691 158.346C206.791 158.862 205.777 159.12 204.649 159.12C203.485 159.12 202.429 158.85 201.481 158.31C200.533 157.758 199.783 156.996 199.231 156.024C198.691 155.04 198.421 153.93 198.421 152.694C198.421 151.458 198.691 150.354 199.231 149.382C199.783 148.398 200.533 147.636 201.481 147.096C202.429 146.544 203.485 146.268 204.649 146.268C205.993 146.268 207.169 146.604 208.177 147.276C209.185 147.948 209.917 148.884 210.373 150.084H208.897ZM214.337 146.412V158.994H213.077V146.412H214.337ZM215.363 143.676L211.673 145.818V144.846L215.363 142.542V143.676ZM221.006 159.12C220.178 159.12 219.446 158.976 218.81 158.688C218.186 158.4 217.694 157.998 217.334 157.482C216.974 156.966 216.782 156.39 216.758 155.754H218.09C218.15 156.366 218.42 156.906 218.9 157.374C219.38 157.83 220.082 158.058 221.006 158.058C221.858 158.058 222.53 157.842 223.022 157.41C223.526 156.966 223.778 156.408 223.778 155.736C223.778 155.196 223.64 154.764 223.364 154.44C223.088 154.104 222.746 153.858 222.338 153.702C221.93 153.534 221.366 153.354 220.646 153.162C219.806 152.934 219.14 152.712 218.648 152.496C218.156 152.28 217.736 151.944 217.388 151.488C217.04 151.032 216.866 150.414 216.866 149.634C216.866 148.986 217.034 148.41 217.37 147.906C217.706 147.39 218.18 146.988 218.792 146.7C219.404 146.412 220.106 146.268 220.898 146.268C222.062 146.268 222.998 146.556 223.706 147.132C224.426 147.696 224.84 148.428 224.948 149.328H223.58C223.496 148.812 223.214 148.356 222.734 147.96C222.254 147.552 221.606 147.348 220.79 147.348C220.034 147.348 219.404 147.552 218.9 147.96C218.396 148.356 218.144 148.902 218.144 149.598C218.144 150.126 218.282 150.552 218.558 150.876C218.834 151.2 219.176 151.446 219.584 151.614C220.004 151.782 220.568 151.962 221.276 152.154C222.092 152.382 222.752 152.61 223.256 152.838C223.76 153.054 224.186 153.39 224.534 153.846C224.882 154.302 225.056 154.914 225.056 155.682C225.056 156.27 224.9 156.828 224.588 157.356C224.276 157.884 223.814 158.31 223.202 158.634C222.59 158.958 221.858 159.12 221.006 159.12ZM234.853 146.412V147.456H231.361V158.994H230.101V147.456H226.591V146.412H234.853ZM238.102 146.412V158.994H236.842V146.412H238.102ZM240.38 152.694C240.38 151.458 240.65 150.354 241.19 149.382C241.73 148.398 242.468 147.636 243.404 147.096C244.34 146.544 245.384 146.268 246.536 146.268C247.94 146.268 249.14 146.604 250.136 147.276C251.144 147.936 251.876 148.872 252.332 150.084H250.856C250.496 149.232 249.944 148.566 249.2 148.086C248.468 147.606 247.58 147.366 246.536 147.366C245.612 147.366 244.778 147.582 244.034 148.014C243.302 148.446 242.726 149.07 242.306 149.886C241.886 150.69 241.676 151.626 241.676 152.694C241.676 153.762 241.886 154.698 242.306 155.502C242.726 156.306 243.302 156.924 244.034 157.356C244.778 157.788 245.612 158.004 246.536 158.004C247.58 158.004 248.468 157.77 249.2 157.302C249.944 156.822 250.496 156.162 250.856 155.322H252.332C251.876 156.522 251.144 157.452 250.136 158.112C249.128 158.772 247.928 159.102 246.536 159.102C245.384 159.102 244.34 158.832 243.404 158.292C242.468 157.74 241.73 156.978 241.19 156.006C240.65 155.034 240.38 153.93 240.38 152.694ZM262.132 156.006H256.408L255.31 158.994H253.978L258.568 146.574H259.99L264.562 158.994H263.23L262.132 156.006ZM261.754 154.962L259.27 148.158L256.786 154.962H261.754Z" fill="black"/>
<path fill-rule="evenodd" clip-rule="evenodd" d="M237.94 0.379883H183.27C183.007 0.382195 182.749 0.453708 182.522 0.587235C182.295 0.720761 182.108 0.911598 181.978 1.1406C181.848 1.36959 181.781 1.62868 181.783 1.89185C181.785 2.15501 181.857 2.41299 181.99 2.63988L185.68 8.88988C189.937 16.1081 192.733 24.0929 193.91 32.3899C194.675 37.7813 197.016 53.5023 198.297 62.0996C198.774 65.3026 199.104 67.5169 199.15 67.8399V67.9299C199.33 68.7799 202.01 80.3799 211.64 80.3799C219.64 80.3799 222.19 73.6899 222.9 70.9899C222.984 70.6702 223.173 70.3877 223.435 70.1867C223.698 69.9858 224.019 69.8779 224.35 69.8799H262.93C263.261 69.8779 263.582 69.9858 263.845 70.1867C264.107 70.3877 264.296 70.6702 264.38 70.9899C265.09 73.6899 267.64 80.3799 275.64 80.3799C283.64 80.3799 286.19 73.6899 286.93 70.9899C287.014 70.6702 287.203 70.3877 287.465 70.1867C287.728 69.9858 288.049 69.8779 288.38 69.8799H293.67C294.068 69.8799 294.449 69.7219 294.731 69.4406C295.012 69.1593 295.17 68.7777 295.17 68.3799V63.3799C295.17 62.9821 295.012 62.6006 294.731 62.3193C294.449 62.0379 294.068 61.8799 293.67 61.8799C293.272 61.8799 292.891 61.7219 292.609 61.4406C292.328 61.1593 292.17 60.7777 292.17 60.3799V50.3199C292.171 50.0337 292.091 49.7531 291.94 49.5099C290.188 46.7904 287.834 44.5108 285.059 42.8478C282.284 41.1848 279.164 40.1829 275.94 39.9199C275.692 39.8961 275.454 39.808 275.251 39.6641C275.047 39.5203 274.885 39.3258 274.78 39.0999L267.34 22.9099C267.13 22.4546 266.795 22.0687 266.373 21.7976C265.952 21.5265 265.461 21.3816 264.96 21.3799H242.14C241.742 21.3799 241.361 21.2219 241.079 20.9406C240.798 20.6593 240.64 20.2777 240.64 19.8799V3.07988C240.64 2.3638 240.356 1.67705 239.849 1.1707C239.343 0.664352 238.656 0.379883 237.94 0.379883ZM242.14 41.3799V25.9499C242.14 25.6661 242.253 25.394 242.453 25.1933C242.654 24.9926 242.926 24.8799 243.21 24.8799H264.45C264.662 24.8768 264.871 24.9369 265.049 25.0526C265.227 25.1684 265.367 25.3345 265.45 25.5299C266.24 27.3499 268.54 32.6099 270.17 35.8799C270.581 36.6556 270.814 37.5131 270.852 38.3901C270.89 39.2671 270.732 40.1415 270.39 40.9499C270.138 41.5331 269.718 42.028 269.184 42.3717C268.65 42.7154 268.025 42.8923 267.39 42.8799H243.64C243.244 42.8747 242.865 42.715 242.585 42.4348C242.305 42.1546 242.145 41.7761 242.14 41.3799Z" fill="#D84602"/>
<path d="M193.45 68.2699L190.64 51.7299L188.14 34.8799L186.14 24.8799C185.165 19.5977 183.226 14.5401 180.42 9.95991C177.64 5.37991 174.27 0.379905 172.64 0.379905H84.01C83.9736 0.379363 83.9378 0.388744 83.9064 0.407035C83.875 0.425326 83.8491 0.45183 83.8316 0.483711C83.8142 0.515591 83.8057 0.551644 83.8072 0.587974C83.8086 0.624304 83.82 0.659539 83.84 0.689903C85.15 2.6899 92.75 13.3799 103.64 13.3799H147.2C147.847 13.3799 148.468 13.637 148.925 14.0946C149.383 14.5522 149.64 15.1728 149.64 15.8199C149.64 16.4989 149.37 17.15 148.89 17.6301C148.41 18.1102 147.759 18.3799 147.08 18.3799H97.73V18.4499C98.51 19.4499 108.01 31.3799 115.68 31.3799H155.07C155.544 31.3786 156.014 31.4711 156.453 31.652C156.892 31.833 157.29 32.0988 157.626 32.4343C157.961 32.7698 158.227 33.1683 158.408 33.6069C158.589 34.0455 158.681 34.5155 158.68 34.9899C158.68 35.889 158.323 36.7513 157.687 37.387C157.051 38.0228 156.189 38.3799 155.29 38.3799H112.7C113.28 39.1999 122.18 51.3799 136.7 51.3799H165.6C166.007 51.3799 166.41 51.4601 166.786 51.6159C167.162 51.7717 167.504 52 167.792 52.2879C168.08 52.5758 168.308 52.9175 168.464 53.2936C168.62 53.6697 168.7 54.0728 168.7 54.4799C168.7 55.2491 168.394 55.9867 167.851 56.5305C167.307 57.0744 166.569 57.3799 165.8 57.3799H131.8V57.4499C132.66 58.4499 142.34 69.3799 154.74 69.3799H192.61C192.867 69.3403 193.098 69.2023 193.255 68.9951C193.412 68.7879 193.482 68.5278 193.45 68.2699Z" fill="#FD8300"/>
<path d="M97.64 44.8799H32.64C31.2593 44.8799 30.14 45.9992 30.14 47.3799C30.14 48.7606 31.2593 49.8799 32.64 49.8799H97.64C99.0207 49.8799 100.14 48.7606 100.14 47.3799C100.14 45.9992 99.0207 44.8799 97.64 44.8799Z" fill="#FD8300"/>
<path d="M112.64 58.8799H96.64C95.2593 58.8799 94.14 59.9992 94.14 61.3799C94.14 62.7606 95.2593 63.8799 96.64 63.8799H112.64C114.021 63.8799 115.14 62.7606 115.14 61.3799C115.14 59.9992 114.021 58.8799 112.64 58.8799Z" fill="#FD8300"/>
<path d="M83.64 58.8799H47.64C46.2593 58.8799 45.14 59.9992 45.14 61.3799C45.14 62.7606 46.2593 63.8799 47.64 63.8799H83.64C85.0207 63.8799 86.14 62.7606 86.14 61.3799C86.14 59.9992 85.0207 58.8799 83.64 58.8799Z" fill="#FD8300"/>
<path d="M33.64 58.8799H22.64C21.2593 58.8799 20.14 59.9992 20.14 61.3799C20.14 62.7606 21.2593 63.8799 22.64 63.8799H33.64C35.0207 63.8799 36.14 62.7606 36.14 61.3799C36.14 59.9992 35.0207 58.8799 33.64 58.8799Z" fill="#FD8300"/>
<path d="M70.64 29.8799H20.64C19.2593 29.8799 18.14 30.9992 18.14 32.3799C18.14 33.7606 19.2593 34.8799 20.64 34.8799H70.64C72.0207 34.8799 73.14 33.7606 73.14 32.3799C73.14 30.9992 72.0207 29.8799 70.64 29.8799Z" fill="#FD8300"/>
<path d="M95.64 29.8799H85.64C84.2593 29.8799 83.14 30.9992 83.14 32.3799C83.14 33.7606 84.2593 34.8799 85.64 34.8799H95.64C97.0207 34.8799 98.14 33.7606 98.14 32.3799C98.14 30.9992 97.0207 29.8799 95.64 29.8799Z" fill="#FD8300"/>
<path d="M6.64002 29.8799H2.64002C1.25931 29.8799 0.140015 30.9992 0.140015 32.3799C0.140015 33.7606 1.25931 34.8799 2.64002 34.8799H6.64002C8.02073 34.8799 9.14002 33.7606 9.14002 32.3799C9.14002 30.9992 8.02073 29.8799 6.64002 29.8799Z" fill="#FD8300"/>
</svg>
