<svg width="212" height="80" viewBox="0 0 212 80" fill="none" xmlns="http://www.w3.org/2000/svg">
<path fill-rule="evenodd" clip-rule="evenodd" d="M154.133 0H99.463C99.2 0.002312 98.942 0.073825 98.715 0.207352C98.488 0.340878 98.301 0.531715 98.171 0.760715C98.041 0.989705 97.974 1.2488 97.976 1.51197C97.978 1.77513 98.05 2.0331 98.183 2.25999L101.873 8.51C106.13 15.7282 108.926 23.713 110.103 32.01C110.868 37.4014 113.209 53.1224 114.49 61.7197C114.967 64.9227 115.297 67.137 115.343 67.46V67.55C115.523 68.4 118.203 80 127.833 80C135.833 80 138.383 73.31 139.093 70.61C139.177 70.2903 139.366 70.0078 139.628 69.8068C139.891 69.6059 140.212 69.498 140.543 69.5H179.123C179.454 69.498 179.775 69.6059 180.038 69.8068C180.3 70.0078 180.489 70.2903 180.573 70.61C181.283 73.31 183.833 80 191.833 80C199.833 80 202.383 73.31 203.123 70.61C203.207 70.2903 203.396 70.0078 203.658 69.8068C203.921 69.6059 204.242 69.498 204.573 69.5H209.863C210.261 69.5 210.642 69.342 210.924 69.0607C211.205 68.7794 211.363 68.3978 211.363 68V63C211.363 62.6022 211.205 62.2207 210.924 61.9394C210.642 61.658 210.261 61.5 209.863 61.5C209.465 61.5 209.084 61.342 208.802 61.0607C208.521 60.7794 208.363 60.3978 208.363 60V49.94C208.364 49.6538 208.284 49.3732 208.133 49.13C206.381 46.4105 204.027 44.1309 201.252 42.4679C198.477 40.8049 195.357 39.803 192.133 39.54C191.885 39.5162 191.647 39.4281 191.444 39.2842C191.24 39.1404 191.078 38.9459 190.973 38.72L183.533 22.53C183.323 22.0747 182.988 21.6888 182.566 21.4177C182.145 21.1466 181.654 21.0017 181.153 21H158.333C157.935 21 157.554 20.842 157.272 20.5607C156.991 20.2794 156.833 19.8978 156.833 19.5V2.7C156.833 1.98392 156.549 1.29716 156.042 0.790815C155.536 0.284469 154.849 0 154.133 0ZM158.333 41V25.57C158.333 25.2862 158.446 25.0141 158.646 24.8134C158.847 24.6127 159.119 24.5 159.403 24.5H180.643C180.855 24.4969 181.064 24.557 181.242 24.6727C181.42 24.7885 181.56 24.9546 181.643 25.15C182.433 26.97 184.733 32.23 186.363 35.5C186.774 36.2757 187.007 37.1332 187.045 38.0102C187.083 38.8872 186.925 39.7616 186.583 40.57C186.331 41.1532 185.911 41.6481 185.377 41.9918C184.843 42.3355 184.218 42.5124 183.583 42.5H159.833C159.437 42.4948 159.058 42.3351 158.778 42.0549C158.498 41.7747 158.338 41.3962 158.333 41Z" fill="#D84602"/>
<path d="M109.643 67.89L106.833 51.35L104.333 34.5L102.333 24.5C101.358 19.2178 99.419 14.1602 96.613 9.58002C93.833 5.00002 90.463 2.22239e-05 88.833 2.22239e-05H0.202974C0.166574 -0.000519776 0.130774 0.00886123 0.0993743 0.0271522C0.0679743 0.0454432 0.042068 0.0719472 0.024568 0.103828C0.00716804 0.135708 -0.00133076 0.171761 0.000169236 0.208091C0.00156924 0.244421 0.012968 0.279656 0.032968 0.31002C1.34297 2.31002 8.94297 13 19.833 13H63.393C64.04 13 64.661 13.2571 65.118 13.7147C65.576 14.1723 65.833 14.7929 65.833 15.44C65.833 16.119 65.563 16.7701 65.083 17.2502C64.603 17.7303 63.952 18 63.273 18H13.923V18.07C14.703 19.07 24.203 31 31.873 31H71.263C71.737 30.9987 72.207 31.0912 72.646 31.2721C73.085 31.4531 73.483 31.7189 73.819 32.0544C74.154 32.3899 74.42 32.7884 74.601 33.227C74.782 33.6656 74.874 34.1356 74.873 34.61C74.873 35.5091 74.516 36.3714 73.88 37.0071C73.244 37.6429 72.382 38 71.483 38H28.893C29.473 38.82 38.373 51 52.893 51H81.793C82.2 51 82.603 51.0802 82.979 51.236C83.355 51.3918 83.697 51.6201 83.985 51.908C84.273 52.1959 84.501 52.5376 84.657 52.9137C84.813 53.2898 84.893 53.6929 84.893 54.1C84.893 54.8692 84.587 55.6068 84.044 56.1506C83.5 56.6945 82.762 57 81.993 57H47.993V57.07C48.853 58.07 58.533 69 70.933 69H108.803C109.06 68.9604 109.291 68.8224 109.448 68.6152C109.605 68.408 109.675 68.1479 109.643 67.89Z" fill="#FD8300"/>
</svg>
