<svg width="296" height="190" viewBox="0 0 296 190" fill="none" xmlns="http://www.w3.org/2000/svg">
<path d="M55.19 126.125C53.0973 126.125 51.2053 125.767 49.514 125.05C47.8513 124.333 46.5327 123.301 45.558 121.954C44.5833 120.607 44.0817 119.016 44.053 117.181H50.503C50.589 118.414 51.019 119.388 51.793 120.105C52.5957 120.822 53.685 121.18 55.061 121.18C56.4657 121.18 57.5693 120.85 58.372 120.191C59.1747 119.503 59.576 118.614 59.576 117.525C59.576 116.636 59.3037 115.905 58.759 115.332C58.2143 114.759 57.5263 114.314 56.695 113.999C55.8923 113.655 54.7743 113.282 53.341 112.881C51.3917 112.308 49.8007 111.749 48.568 111.204C47.364 110.631 46.3177 109.785 45.429 108.667C44.569 107.52 44.139 106.001 44.139 104.109C44.139 102.332 44.5833 100.784 45.472 99.465C46.3607 98.146 47.6077 97.143 49.213 96.455C50.8183 95.738 52.653 95.38 54.717 95.38C57.813 95.38 60.3213 96.14 62.242 97.659C64.1913 99.15 65.2663 101.242 65.467 103.937H58.845C58.7877 102.905 58.3433 102.059 57.512 101.4C56.7093 100.712 55.6343 100.368 54.287 100.368C53.1117 100.368 52.1657 100.669 51.449 101.271C50.761 101.873 50.417 102.747 50.417 103.894C50.417 104.697 50.675 105.37 51.191 105.915C51.7357 106.431 52.395 106.861 53.169 107.205C53.9717 107.52 55.0897 107.893 56.523 108.323C58.4723 108.896 60.0633 109.47 61.296 110.043C62.5287 110.616 63.5893 111.476 64.478 112.623C65.3667 113.77 65.811 115.275 65.811 117.138C65.811 118.743 65.3953 120.234 64.564 121.61C63.7327 122.986 62.5143 124.09 60.909 124.921C59.3037 125.724 57.3973 126.125 55.19 126.125ZM76.9641 95.81V114.386C76.9641 116.421 77.4945 117.984 78.5551 119.073C79.6158 120.134 81.1065 120.664 83.0271 120.664C84.9765 120.664 86.4815 120.134 87.5421 119.073C88.6028 117.984 89.1331 116.421 89.1331 114.386V95.81H95.1961V114.343C95.1961 116.894 94.6371 119.059 93.5191 120.836C92.4298 122.585 90.9535 123.903 89.0901 124.792C87.2555 125.681 85.2058 126.125 82.9411 126.125C80.7051 126.125 78.6698 125.681 76.8351 124.792C75.0291 123.903 73.5958 122.585 72.5351 120.836C71.4745 119.059 70.9441 116.894 70.9441 114.343V95.81H76.9641ZM122.9 105.098C122.9 106.703 122.513 108.208 121.739 109.613C120.993 111.018 119.804 112.15 118.17 113.01C116.564 113.87 114.529 114.3 112.064 114.3H107.033V125.824H101.013V95.81H112.064C114.386 95.81 116.364 96.211 117.998 97.014C119.632 97.817 120.85 98.92 121.653 100.325C122.484 101.73 122.9 103.321 122.9 105.098ZM111.806 109.441C113.468 109.441 114.701 109.068 115.504 108.323C116.306 107.549 116.708 106.474 116.708 105.098C116.708 102.174 115.074 100.712 111.806 100.712H107.033V109.441H111.806ZM133.194 100.669V108.194H143.299V112.967H133.194V120.922H144.589V125.824H127.174V95.767H144.589V100.669H133.194ZM165.539 125.824L158.917 114.128H156.079V125.824H150.059V95.81H161.325C163.647 95.81 165.625 96.226 167.259 97.057C168.893 97.86 170.112 98.963 170.914 100.368C171.746 101.744 172.161 103.292 172.161 105.012C172.161 106.99 171.588 108.782 170.441 110.387C169.295 111.964 167.589 113.053 165.324 113.655L172.505 125.824H165.539ZM156.079 109.613H161.11C162.744 109.613 163.963 109.226 164.765 108.452C165.568 107.649 165.969 106.546 165.969 105.141C165.969 103.765 165.568 102.704 164.765 101.959C163.963 101.185 162.744 100.798 161.11 100.798H156.079V109.613ZM193.872 121.051H203.762V125.824H187.852V95.81H193.872V121.051ZM221.521 126.125C218.711 126.125 216.131 125.466 213.781 124.147C211.43 122.828 209.567 121.008 208.191 118.686C206.815 116.335 206.127 113.684 206.127 110.731C206.127 107.807 206.815 105.184 208.191 102.862C209.567 100.511 211.43 98.677 213.781 97.358C216.131 96.039 218.711 95.38 221.521 95.38C224.359 95.38 226.939 96.039 229.261 97.358C231.611 98.677 233.46 100.511 234.808 102.862C236.184 105.184 236.872 107.807 236.872 110.731C236.872 113.684 236.184 116.335 234.808 118.686C233.46 121.008 231.611 122.828 229.261 124.147C226.91 125.466 224.33 126.125 221.521 126.125ZM221.521 120.75C223.327 120.75 224.918 120.349 226.294 119.546C227.67 118.715 228.745 117.539 229.519 116.02C230.293 114.501 230.68 112.738 230.68 110.731C230.68 108.724 230.293 106.976 229.519 105.485C228.745 103.966 227.67 102.805 226.294 102.002C224.918 101.199 223.327 100.798 221.521 100.798C219.715 100.798 218.109 101.199 216.705 102.002C215.329 102.805 214.254 103.966 213.48 105.485C212.706 106.976 212.319 108.724 212.319 110.731C212.319 112.738 212.706 114.501 213.48 116.02C214.254 117.539 215.329 118.715 216.705 119.546C218.109 120.349 219.715 120.75 221.521 120.75ZM262.248 104.84C261.56 103.579 260.614 102.618 259.41 101.959C258.206 101.3 256.802 100.97 255.196 100.97C253.419 100.97 251.842 101.371 250.466 102.174C249.09 102.977 248.015 104.123 247.241 105.614C246.467 107.105 246.08 108.825 246.08 110.774C246.08 112.781 246.467 114.529 247.241 116.02C248.044 117.511 249.148 118.657 250.552 119.46C251.957 120.263 253.591 120.664 255.454 120.664C257.748 120.664 259.625 120.062 261.087 118.858C262.549 117.625 263.51 115.92 263.968 113.741H253.648V109.14H269.902V114.386C269.501 116.479 268.641 118.414 267.322 120.191C266.004 121.968 264.298 123.402 262.205 124.491C260.141 125.552 257.819 126.082 255.239 126.082C252.344 126.082 249.721 125.437 247.37 124.147C245.048 122.828 243.214 121.008 241.866 118.686C240.548 116.364 239.888 113.727 239.888 110.774C239.888 107.821 240.548 105.184 241.866 102.862C243.214 100.511 245.048 98.691 247.37 97.401C249.721 96.082 252.33 95.423 255.196 95.423C258.579 95.423 261.517 96.254 264.011 97.917C266.505 99.551 268.225 101.859 269.171 104.84H262.248Z" fill="#E6E6E6"/>
<path d="M58.052 146.412V147.456H54.56V158.994H53.3V147.456H49.79V146.412H58.052ZM66.7376 158.994L63.6236 153.738H61.3016V158.994H60.0416V146.412H63.8216C65.2256 146.412 66.2876 146.748 67.0076 147.42C67.7396 148.092 68.1056 148.974 68.1056 150.066C68.1056 150.978 67.8416 151.758 67.3136 152.406C66.7976 153.042 66.0296 153.456 65.0096 153.648L68.2496 158.994H66.7376ZM61.3016 152.712H63.8396C64.8236 152.712 65.5616 152.472 66.0536 151.992C66.5576 151.512 66.8096 150.87 66.8096 150.066C66.8096 149.238 66.5696 148.602 66.0896 148.158C65.6096 147.702 64.8536 147.474 63.8216 147.474H61.3016V152.712ZM77.896 156.006H72.172L71.074 158.994H69.742L74.332 146.574H75.754L80.326 158.994H78.994L77.896 156.006ZM77.518 154.962L75.034 148.158L72.55 154.962H77.518ZM91.8342 158.994H90.5742L83.6082 148.41V158.994H82.3482V146.412H83.6082L90.5742 156.978V146.412H91.8342V158.994ZM98.504 159.12C97.676 159.12 96.944 158.976 96.308 158.688C95.684 158.4 95.192 157.998 94.832 157.482C94.472 156.966 94.28 156.39 94.256 155.754H95.588C95.648 156.366 95.918 156.906 96.398 157.374C96.878 157.83 97.58 158.058 98.504 158.058C99.356 158.058 100.028 157.842 100.52 157.41C101.024 156.966 101.276 156.408 101.276 155.736C101.276 155.196 101.138 154.764 100.862 154.44C100.586 154.104 100.244 153.858 99.836 153.702C99.428 153.534 98.864 153.354 98.144 153.162C97.304 152.934 96.638 152.712 96.146 152.496C95.654 152.28 95.234 151.944 94.886 151.488C94.538 151.032 94.364 150.414 94.364 149.634C94.364 148.986 94.532 148.41 94.868 147.906C95.204 147.39 95.678 146.988 96.29 146.7C96.902 146.412 97.604 146.268 98.396 146.268C99.56 146.268 100.496 146.556 101.204 147.132C101.924 147.696 102.338 148.428 102.446 149.328H101.078C100.994 148.812 100.712 148.356 100.232 147.96C99.752 147.552 99.104 147.348 98.288 147.348C97.532 147.348 96.902 147.552 96.398 147.96C95.894 148.356 95.642 148.902 95.642 149.598C95.642 150.126 95.78 150.552 96.056 150.876C96.332 151.2 96.674 151.446 97.082 151.614C97.502 151.782 98.066 151.962 98.774 152.154C99.59 152.382 100.25 152.61 100.754 152.838C101.258 153.054 101.684 153.39 102.032 153.846C102.38 154.302 102.554 154.914 102.554 155.682C102.554 156.27 102.398 156.828 102.086 157.356C101.774 157.884 101.312 158.31 100.7 158.634C100.088 158.958 99.356 159.12 98.504 159.12ZM113.035 150.03C113.035 151.11 112.681 151.98 111.973 152.64C111.265 153.3 110.203 153.63 108.787 153.63H106.249V158.994H104.989V146.412H108.787C110.191 146.412 111.247 146.742 111.955 147.402C112.675 148.062 113.035 148.938 113.035 150.03ZM108.787 152.55C110.755 152.55 111.739 151.71 111.739 150.03C111.739 149.19 111.505 148.554 111.037 148.122C110.569 147.69 109.819 147.474 108.787 147.474H106.249V152.55H108.787ZM120.801 159.12C119.637 159.12 118.581 158.85 117.633 158.31C116.685 157.758 115.935 156.996 115.383 156.024C114.843 155.04 114.573 153.93 114.573 152.694C114.573 151.458 114.843 150.354 115.383 149.382C115.935 148.398 116.685 147.636 117.633 147.096C118.581 146.544 119.637 146.268 120.801 146.268C121.977 146.268 123.039 146.544 123.987 147.096C124.935 147.636 125.679 148.398 126.219 149.382C126.759 150.354 127.029 151.458 127.029 152.694C127.029 153.93 126.759 155.04 126.219 156.024C125.679 156.996 124.935 157.758 123.987 158.31C123.039 158.85 121.977 159.12 120.801 159.12ZM120.801 158.022C121.737 158.022 122.577 157.806 123.321 157.374C124.065 156.942 124.653 156.324 125.085 155.52C125.517 154.704 125.733 153.762 125.733 152.694C125.733 151.626 125.517 150.69 125.085 149.886C124.653 149.082 124.065 148.464 123.321 148.032C122.577 147.6 121.737 147.384 120.801 147.384C119.865 147.384 119.025 147.6 118.281 148.032C117.537 148.464 116.949 149.082 116.517 149.886C116.085 150.69 115.869 151.626 115.869 152.694C115.869 153.762 116.085 154.704 116.517 155.52C116.949 156.324 117.537 156.942 118.281 157.374C119.025 157.806 119.865 158.022 120.801 158.022ZM136.031 158.994L132.917 153.738H130.595V158.994H129.335V146.412H133.115C134.519 146.412 135.581 146.748 136.301 147.42C137.033 148.092 137.399 148.974 137.399 150.066C137.399 150.978 137.135 151.758 136.607 152.406C136.091 153.042 135.323 153.456 134.303 153.648L137.543 158.994H136.031ZM130.595 152.712H133.133C134.117 152.712 134.855 152.472 135.347 151.992C135.851 151.512 136.103 150.87 136.103 150.066C136.103 149.238 135.863 148.602 135.383 148.158C134.903 147.702 134.147 147.474 133.115 147.474H130.595V152.712ZM147.261 146.412V147.456H143.769V158.994H142.509V147.456H138.999V146.412H147.261ZM150.511 147.438V152.136H155.281V153.18H150.511V157.95H155.821V158.994H149.251V146.394H155.821V147.438H150.511ZM164.503 147.438V152.136H169.273V153.18H164.503V157.95H169.813V158.994H163.243V146.394H169.813V147.438H164.503ZM178.495 157.968H183.013V158.994H177.235V146.412H178.495V157.968ZM190.463 159.12C189.299 159.12 188.243 158.85 187.295 158.31C186.347 157.758 185.597 156.996 185.045 156.024C184.505 155.04 184.235 153.93 184.235 152.694C184.235 151.458 184.505 150.354 185.045 149.382C185.597 148.398 186.347 147.636 187.295 147.096C188.243 146.544 189.299 146.268 190.463 146.268C191.639 146.268 192.701 146.544 193.649 147.096C194.597 147.636 195.341 148.398 195.881 149.382C196.421 150.354 196.691 151.458 196.691 152.694C196.691 153.93 196.421 155.04 195.881 156.024C195.341 156.996 194.597 157.758 193.649 158.31C192.701 158.85 191.639 159.12 190.463 159.12ZM190.463 158.022C191.399 158.022 192.239 157.806 192.983 157.374C193.727 156.942 194.315 156.324 194.747 155.52C195.179 154.704 195.395 153.762 195.395 152.694C195.395 151.626 195.179 150.69 194.747 149.886C194.315 149.082 193.727 148.464 192.983 148.032C192.239 147.6 191.399 147.384 190.463 147.384C189.527 147.384 188.687 147.6 187.943 148.032C187.199 148.464 186.611 149.082 186.179 149.886C185.747 150.69 185.531 151.626 185.531 152.694C185.531 153.762 185.747 154.704 186.179 155.52C186.611 156.324 187.199 156.942 187.943 157.374C188.687 157.806 189.527 158.022 190.463 158.022ZM208.897 150.084C208.537 149.256 207.985 148.608 207.241 148.14C206.509 147.66 205.645 147.42 204.649 147.42C203.713 147.42 202.873 147.636 202.129 148.068C201.385 148.5 200.797 149.118 200.365 149.922C199.933 150.714 199.717 151.638 199.717 152.694C199.717 153.75 199.933 154.68 200.365 155.484C200.797 156.288 201.385 156.906 202.129 157.338C202.873 157.77 203.713 157.986 204.649 157.986C205.525 157.986 206.311 157.8 207.007 157.428C207.715 157.044 208.279 156.504 208.699 155.808C209.131 155.1 209.377 154.278 209.437 153.342H204.145V152.316H210.769V153.234C210.709 154.338 210.409 155.34 209.869 156.24C209.329 157.128 208.603 157.83 207.691 158.346C206.791 158.862 205.777 159.12 204.649 159.12C203.485 159.12 202.429 158.85 201.481 158.31C200.533 157.758 199.783 156.996 199.231 156.024C198.691 155.04 198.421 153.93 198.421 152.694C198.421 151.458 198.691 150.354 199.231 149.382C199.783 148.398 200.533 147.636 201.481 147.096C202.429 146.544 203.485 146.268 204.649 146.268C205.993 146.268 207.169 146.604 208.177 147.276C209.185 147.948 209.917 148.884 210.373 150.084H208.897ZM214.337 146.412V158.994H213.077V146.412H214.337ZM215.363 143.676L211.673 145.818V144.846L215.363 142.542V143.676ZM221.006 159.12C220.178 159.12 219.446 158.976 218.81 158.688C218.186 158.4 217.694 157.998 217.334 157.482C216.974 156.966 216.782 156.39 216.758 155.754H218.09C218.15 156.366 218.42 156.906 218.9 157.374C219.38 157.83 220.082 158.058 221.006 158.058C221.858 158.058 222.53 157.842 223.022 157.41C223.526 156.966 223.778 156.408 223.778 155.736C223.778 155.196 223.64 154.764 223.364 154.44C223.088 154.104 222.746 153.858 222.338 153.702C221.93 153.534 221.366 153.354 220.646 153.162C219.806 152.934 219.14 152.712 218.648 152.496C218.156 152.28 217.736 151.944 217.388 151.488C217.04 151.032 216.866 150.414 216.866 149.634C216.866 148.986 217.034 148.41 217.37 147.906C217.706 147.39 218.18 146.988 218.792 146.7C219.404 146.412 220.106 146.268 220.898 146.268C222.062 146.268 222.998 146.556 223.706 147.132C224.426 147.696 224.84 148.428 224.948 149.328H223.58C223.496 148.812 223.214 148.356 222.734 147.96C222.254 147.552 221.606 147.348 220.79 147.348C220.034 147.348 219.404 147.552 218.9 147.96C218.396 148.356 218.144 148.902 218.144 149.598C218.144 150.126 218.282 150.552 218.558 150.876C218.834 151.2 219.176 151.446 219.584 151.614C220.004 151.782 220.568 151.962 221.276 152.154C222.092 152.382 222.752 152.61 223.256 152.838C223.76 153.054 224.186 153.39 224.534 153.846C224.882 154.302 225.056 154.914 225.056 155.682C225.056 156.27 224.9 156.828 224.588 157.356C224.276 157.884 223.814 158.31 223.202 158.634C222.59 158.958 221.858 159.12 221.006 159.12ZM234.853 146.412V147.456H231.361V158.994H230.101V147.456H226.591V146.412H234.853ZM238.102 146.412V158.994H236.842V146.412H238.102ZM240.38 152.694C240.38 151.458 240.65 150.354 241.19 149.382C241.73 148.398 242.468 147.636 243.404 147.096C244.34 146.544 245.384 146.268 246.536 146.268C247.94 146.268 249.14 146.604 250.136 147.276C251.144 147.936 251.876 148.872 252.332 150.084H250.856C250.496 149.232 249.944 148.566 249.2 148.086C248.468 147.606 247.58 147.366 246.536 147.366C245.612 147.366 244.778 147.582 244.034 148.014C243.302 148.446 242.726 149.07 242.306 149.886C241.886 150.69 241.676 151.626 241.676 152.694C241.676 153.762 241.886 154.698 242.306 155.502C242.726 156.306 243.302 156.924 244.034 157.356C244.778 157.788 245.612 158.004 246.536 158.004C247.58 158.004 248.468 157.77 249.2 157.302C249.944 156.822 250.496 156.162 250.856 155.322H252.332C251.876 156.522 251.144 157.452 250.136 158.112C249.128 158.772 247.928 159.102 246.536 159.102C245.384 159.102 244.34 158.832 243.404 158.292C242.468 157.74 241.73 156.978 241.19 156.006C240.65 155.034 240.38 153.93 240.38 152.694ZM262.132 156.006H256.408L255.31 158.994H253.978L258.568 146.574H259.99L264.562 158.994H263.23L262.132 156.006ZM261.754 154.962L259.27 148.158L256.786 154.962H261.754Z" fill="#E6E6E6"/>
<path fill-rule="evenodd" clip-rule="evenodd" d="M237.94 0.380005H183.27C183.007 0.382317 182.749 0.45383 182.522 0.587357C182.295 0.720883 182.108 0.91172 181.978 1.14072C181.848 1.36971 181.781 1.6288 181.783 1.89197C181.785 2.15513 181.857 2.41311 181.99 2.64L185.68 8.89C189.937 16.1082 192.733 24.093 193.91 32.39C194.675 37.7814 197.016 53.5024 198.297 62.0997C198.774 65.3027 199.104 67.517 199.15 67.84V67.93C199.33 68.78 202.01 80.38 211.64 80.38C219.64 80.38 222.19 73.69 222.9 70.99C222.984 70.6703 223.173 70.3878 223.435 70.1868C223.698 69.9859 224.019 69.878 224.35 69.88H262.93C263.261 69.878 263.582 69.9859 263.845 70.1868C264.107 70.3878 264.296 70.6703 264.38 70.99C265.09 73.69 267.64 80.38 275.64 80.38C283.64 80.38 286.19 73.69 286.93 70.99C287.014 70.6703 287.203 70.3878 287.465 70.1868C287.728 69.9859 288.049 69.878 288.38 69.88H293.67C294.068 69.88 294.449 69.722 294.731 69.4407C295.012 69.1594 295.17 68.7778 295.17 68.38V63.38C295.17 62.9822 295.012 62.6007 294.731 62.3194C294.449 62.038 294.068 61.88 293.67 61.88C293.272 61.88 292.891 61.722 292.609 61.4407C292.328 61.1594 292.17 60.7778 292.17 60.38V50.32C292.171 50.0338 292.091 49.7532 291.94 49.51C290.188 46.7905 287.834 44.5109 285.059 42.8479C282.284 41.1849 279.164 40.183 275.94 39.92C275.692 39.8962 275.454 39.8081 275.251 39.6642C275.047 39.5204 274.885 39.3259 274.78 39.1L267.34 22.91C267.13 22.4547 266.795 22.0688 266.373 21.7977C265.952 21.5266 265.461 21.3817 264.96 21.38H242.14C241.742 21.38 241.361 21.222 241.079 20.9407C240.798 20.6594 240.64 20.2778 240.64 19.88V3.08C240.64 2.36392 240.356 1.67717 239.849 1.17082C239.343 0.664474 238.656 0.380005 237.94 0.380005ZM242.14 41.38V25.95C242.14 25.6662 242.253 25.3941 242.453 25.1934C242.654 24.9927 242.926 24.88 243.21 24.88H264.45C264.662 24.8769 264.871 24.937 265.049 25.0527C265.227 25.1685 265.367 25.3346 265.45 25.53C266.24 27.35 268.54 32.61 270.17 35.88C270.581 36.6557 270.814 37.5132 270.852 38.3902C270.89 39.2672 270.732 40.1416 270.39 40.95C270.138 41.5332 269.718 42.0281 269.184 42.3718C268.65 42.7155 268.025 42.8924 267.39 42.88H243.64C243.244 42.8748 242.865 42.7151 242.585 42.4349C242.305 42.1547 242.145 41.7762 242.14 41.38Z" fill="#E6E6E6"/>
<path d="M193.45 68.27L190.64 51.73L188.14 34.88L186.14 24.88C185.165 19.5978 183.226 14.5402 180.42 9.96003C177.64 5.38003 174.27 0.380027 172.64 0.380027H84.01C83.9736 0.379485 83.9378 0.388866 83.9064 0.407157C83.875 0.425448 83.8491 0.451952 83.8316 0.483833C83.8142 0.515713 83.8057 0.551766 83.8072 0.588096C83.8086 0.624426 83.82 0.659661 83.84 0.690025C85.15 2.69002 92.75 13.38 103.64 13.38H147.2C147.847 13.38 148.468 13.6371 148.925 14.0947C149.383 14.5523 149.64 15.1729 149.64 15.82C149.64 16.499 149.37 17.1501 148.89 17.6302C148.41 18.1103 147.759 18.38 147.08 18.38H97.73V18.45C98.51 19.45 108.01 31.38 115.68 31.38H155.07C155.544 31.3787 156.014 31.4712 156.453 31.6521C156.892 31.8331 157.29 32.0989 157.626 32.4344C157.961 32.7699 158.227 33.1684 158.408 33.607C158.589 34.0456 158.681 34.5156 158.68 34.99C158.68 35.8891 158.323 36.7514 157.687 37.3871C157.051 38.0229 156.189 38.38 155.29 38.38H112.7C113.28 39.2 122.18 51.38 136.7 51.38H165.6C166.007 51.38 166.41 51.4602 166.786 51.616C167.162 51.7718 167.504 52.0001 167.792 52.288C168.08 52.5759 168.308 52.9176 168.464 53.2937C168.62 53.6698 168.7 54.0729 168.7 54.48C168.7 55.2492 168.394 55.9868 167.851 56.5306C167.307 57.0745 166.569 57.38 165.8 57.38H131.8V57.45C132.66 58.45 142.34 69.38 154.74 69.38H192.61C192.867 69.3404 193.098 69.2024 193.255 68.9952C193.412 68.788 193.482 68.5279 193.45 68.27Z" fill="#E6E6E6"/>
<path d="M97.64 44.88H32.64C31.2593 44.88 30.14 45.9993 30.14 47.38C30.14 48.7607 31.2593 49.88 32.64 49.88H97.64C99.0207 49.88 100.14 48.7607 100.14 47.38C100.14 45.9993 99.0207 44.88 97.64 44.88Z" fill="#E6E6E6"/>
<path d="M112.64 58.88H96.64C95.2593 58.88 94.14 59.9993 94.14 61.38C94.14 62.7607 95.2593 63.88 96.64 63.88H112.64C114.021 63.88 115.14 62.7607 115.14 61.38C115.14 59.9993 114.021 58.88 112.64 58.88Z" fill="#E6E6E6"/>
<path d="M83.64 58.88H47.64C46.2593 58.88 45.14 59.9993 45.14 61.38C45.14 62.7607 46.2593 63.88 47.64 63.88H83.64C85.0207 63.88 86.14 62.7607 86.14 61.38C86.14 59.9993 85.0207 58.88 83.64 58.88Z" fill="#E6E6E6"/>
<path d="M33.64 58.88H22.64C21.2593 58.88 20.14 59.9993 20.14 61.38C20.14 62.7607 21.2593 63.88 22.64 63.88H33.64C35.0207 63.88 36.14 62.7607 36.14 61.38C36.14 59.9993 35.0207 58.88 33.64 58.88Z" fill="#E6E6E6"/>
<path d="M70.64 29.88H20.64C19.2593 29.88 18.14 30.9993 18.14 32.38C18.14 33.7607 19.2593 34.88 20.64 34.88H70.64C72.0207 34.88 73.14 33.7607 73.14 32.38C73.14 30.9993 72.0207 29.88 70.64 29.88Z" fill="#E6E6E6"/>
<path d="M95.64 29.88H85.64C84.2593 29.88 83.14 30.9993 83.14 32.38C83.14 33.7607 84.2593 34.88 85.64 34.88H95.64C97.0207 34.88 98.14 33.7607 98.14 32.38C98.14 30.9993 97.0207 29.88 95.64 29.88Z" fill="#E6E6E6"/>
<path d="M6.64002 29.88H2.64002C1.25931 29.88 0.140015 30.9993 0.140015 32.38C0.140015 33.7607 1.25931 34.88 2.64002 34.88H6.64002C8.02073 34.88 9.14002 33.7607 9.14002 32.38C9.14002 30.9993 8.02073 29.88 6.64002 29.88Z" fill="#E6E6E6"/>
</svg>
