<svg width="300" height="300" viewBox="0 0 300 300" fill="none" xmlns="http://www.w3.org/2000/svg">
<path fill-rule="evenodd" clip-rule="evenodd" d="M216.302 95H141.131C140.769 95.0032 140.415 95.1015 140.103 95.2851C139.79 95.4687 139.533 95.7311 139.355 96.046C139.176 96.3608 139.084 96.7171 139.086 97.079C139.089 97.4408 139.188 97.7955 139.371 98.1075L144.445 106.701C150.298 116.626 154.143 127.605 155.761 139.014C156.813 146.427 160.032 168.043 161.793 179.865C162.449 184.269 162.903 187.313 162.966 187.757V187.881C163.214 189.05 166.899 205 180.14 205C191.14 205 194.646 195.801 195.622 192.089C195.738 191.649 195.998 191.261 196.358 190.984C196.72 190.708 197.161 190.56 197.616 190.562H250.664C251.119 190.56 251.56 190.708 251.922 190.984C252.282 191.261 252.542 191.649 252.657 192.089C253.634 195.801 257.14 205 268.14 205C279.14 205 282.646 195.801 283.664 192.089C283.779 191.649 284.039 191.261 284.399 190.984C284.761 190.708 285.202 190.56 285.657 190.562H292.931C293.478 190.562 294.002 190.345 294.39 189.958C294.776 189.572 294.994 189.047 294.994 188.5V181.625C294.994 181.078 294.776 180.553 294.39 180.167C294.002 179.78 293.478 179.562 292.931 179.562C292.384 179.562 291.86 179.345 291.472 178.958C291.086 178.572 290.869 178.047 290.869 177.5V163.667C290.87 163.274 290.76 162.888 290.552 162.554C288.143 158.814 284.907 155.68 281.091 153.393C277.275 151.107 272.985 149.729 268.552 149.367C268.211 149.335 267.884 149.214 267.605 149.016C267.324 148.818 267.102 148.551 266.957 148.24L256.727 125.979C256.439 125.353 255.978 124.822 255.398 124.449C254.819 124.077 254.144 123.877 253.455 123.875H222.077C221.53 123.875 221.006 123.658 220.618 123.271C220.232 122.884 220.015 122.359 220.015 121.812V98.7125C220.015 97.7279 219.624 96.7836 218.927 96.0874C218.231 95.3911 217.287 95 216.302 95ZM222.077 151.375V130.159C222.077 129.769 222.233 129.394 222.508 129.118C222.784 128.842 223.158 128.687 223.549 128.687H252.754C253.045 128.683 253.332 128.766 253.577 128.925C253.822 129.084 254.014 129.313 254.129 129.581C255.215 132.084 258.377 139.316 260.619 143.812C261.184 144.879 261.504 146.058 261.556 147.264C261.609 148.47 261.391 149.672 260.921 150.784C260.575 151.586 259.997 152.266 259.263 152.739C258.529 153.211 257.669 153.455 256.796 153.437H224.14C223.595 153.43 223.074 153.211 222.689 152.825C222.304 152.44 222.084 151.92 222.077 151.375Z" fill="#D84602"/>
<path d="M155.129 188.349L151.265 165.606L147.827 142.437L145.077 128.687C143.737 121.424 141.071 114.47 137.212 108.173C133.39 101.875 128.756 95 126.515 95H4.64853C4.59848 94.9993 4.54926 95.0122 4.50609 95.0373C4.46291 95.0625 4.42729 95.0989 4.40323 95.1428C4.3793 95.1866 4.36762 95.2362 4.36968 95.2861C4.3716 95.3361 4.38728 95.3845 4.41478 95.4263C6.21603 98.1763 16.666 112.875 31.6398 112.875H91.5348C92.4244 112.875 93.2783 113.229 93.9067 113.858C94.5364 114.487 94.8898 115.34 94.8898 116.23C94.8898 117.164 94.5185 118.059 93.8585 118.719C93.1985 119.379 92.3034 119.75 91.3698 119.75H23.5135V119.846C24.586 121.221 37.6485 137.625 48.1948 137.625H102.356C103.008 137.623 103.654 137.75 104.258 137.999C104.861 138.248 105.409 138.613 105.871 139.075C106.331 139.536 106.697 140.084 106.946 140.687C107.195 141.29 107.321 141.936 107.32 142.589C107.32 143.825 106.829 145.011 105.954 145.885C105.08 146.759 103.895 147.25 102.659 147.25H44.0973C44.8948 148.377 57.1323 165.125 77.0973 165.125H116.835C117.394 165.125 117.949 165.235 118.466 165.449C118.983 165.664 119.453 165.978 119.849 166.373C120.245 166.769 120.558 167.239 120.773 167.756C120.987 168.273 121.097 168.828 121.097 169.387C121.097 170.445 120.677 171.459 119.93 172.207C119.182 172.955 118.167 173.375 117.11 173.375H70.3598V173.471C71.5423 174.846 84.8523 189.875 101.902 189.875H153.974C154.327 189.821 154.645 189.631 154.86 189.346C155.076 189.061 155.173 188.703 155.129 188.349Z" fill="#FD8300"/>
</svg>
